{
  "accessors": [
    {
      "bufferView": 1,
      "componentType": 5126,
      "count": 10000,
      "max": [
        0.06930896639823914,
        0.017082426697015762,
        0.6001766324043274
      ],
      "min": [
        -0.14074546098709106,
        -0.028290823101997375,
        0.10255888849496841
      ],
      "type": "VEC3"
    },
    {
      "bufferView": 1,
      "byteOffset": 120000,
      "componentType": 5126,
      "count": 10000,
      "max": [
        0.9940869808197021,
        0.9906049370765686,
        0.9073429703712463
      ],
      "min": [
        -0.9960842132568359,
        -0.9906828999519348,
        -0.9112157225608826
      ],
      "type": "VEC3"
    },
    {
      "bufferView": 0,
      "componentType": 5125,
      "count": 54000,
      "type": "SCALAR"
    },
    {
      "bufferView": 1,
      "byteOffset": 240000,
      "componentType": 5126,
      "count": 1410,
      "max": [
        0.0330023355782032,
        0.005160457920283079,
        0.530345618724823
      ],
      "min": [
        -0.1115303561091423,
        -0.005160465370863676,
        -0.008051875978708267
      ],
      "type": "VEC3"
    },
    {
      "bufferView": 1,
      "byteOffset": 256920,
      "componentType": 5126,
      "count": 1410,
      "max": [
        0.999976634979248,
        0.9999839663505554,
        0.9872875809669495
      ],
      "min": [
        -0.9999770522117615,
        -0.9999839663505554,
        -1.0
      ],
      "type": "VEC3"
    },
    {
      "bufferView": 0,
      "byteOffset": 216000,
      "componentType": 5125,
      "count": 8448,
      "type": "SCALAR"
    }
  ],
  "asset": {
    "extras": {
      "author": "Laurie Annis (https://sketchfab.com/laurieannis)",
      "license": "CC-BY-4.0 (http://creativecommons.org/licenses/by/4.0/)",
      "source": "https://sketchfab.com/3d-models/high-poly-unrealistic-feather-free-download-1ed3b855d5e74e6489b9e9805ce9c2c5",
      "title": "High Poly Unrealistic Feather - Free Download"
    },
    "generator": "Sketchfab-16.3.0",
    "version": "2.0"
  },
  "bufferViews": [
    {
      "buffer": 0,
      "byteLength": 249792,
      "name": "floatBufferViews",
      "target": 34963
    },
    {
      "buffer": 0,
      "byteLength": 273840,
      "byteOffset": 249792,
      "byteStride": 12,
      "name": "floatBufferViews",
      "target": 34962
    }
  ],
  "buffers": [
    {
      "byteLength": 523632,
      "uri": "scene.bin"
    }
  ],
  "materials": [
    {
      "name": "white_toon",
      "pbrMetallicRoughness": {
        "metallicFactor": 0.0,
        "roughnessFactor": 0.7763932022500211
      }
    },
    {
      "doubleSided": true,
      "name": "Material.001",
      "pbrMetallicRoughness": {
        "baseColorFactor": [
          0.8,
          0.8,
          0.8,
          1.0
        ],
        "metallicFactor": 0.0,
        "roughnessFactor": 0.8211145618000169
      }
    }
  ],
  "meshes": [
    {
      "name": "Feather_white toon_0",
      "primitives": [
        {
          "attributes": {
            "NORMAL": 1,
            "POSITION": 0
          },
          "indices": 2,
          "material": 0,
          "mode": 4
        }
      ]
    },
    {
      "name": "Feather_Material.001_0",
      "primitives": [
        {
          "attributes": {
            "NORMAL": 4,
            "POSITION": 3
          },
          "indices": 5,
          "material": 1,
          "mode": 4
        }
      ]
    }
  ],
  "nodes": [
    {
      "children": [
        1
      ],
      "matrix": [
        1.0,
        0.0,
        0.0,
        0.0,
        0.0,
        2.220446049250313e-16,
        -1.0,
        0.0,
        0.0,
        1.0,
        2.220446049250313e-16,
        0.0,
        0.0,
        0.0,
        0.0,
        1.0
      ],
      "name": "Sketchfab_model"
    },
    {
      "children": [
        2
      ],
      "matrix": [
        1.0,
        0.0,
        0.0,
        0.0,
        0.0,
        0.0,
        1.0,
        0.0,
        0.0,
        -1.0,
        0.0,
        0.0,
        0.0,
        0.0,
        0.0,
        1.0
      ],
      "name": "f7ddbd38d547465faa1a4dec978d1395.fbx"
    },
    {
      "children": [
        3
      ],
      "name": "RootNode"
    },
    {
      "children": [
        4,
        5
      ],
      "matrix": [
        1.0,
        0.0,
        0.0,
        0.0,
        0.0,
        -1.6292067939183141e-07,
        -0.9999999999999868,
        0.0,
        0.0,
        0.9999999999999868,
        -1.6292067939183141e-07,
        0.0,
        0.0,
        0.0,
        0.0,
        1.0
      ],
      "name": "Feather"
    },
    {
      "mesh": 0,
      "name": "Feather_white toon_0"
    },
    {
      "mesh": 1,
      "name": "Feather_Material.001_0"
    }
  ],
  "scene": 0,
  "scenes": [
    {
      "name": "Sketchfab_Scene",
      "nodes": [
        0
      ]
    }
  ]
}
